<svg xmlns="http://www.w3.org/2000/svg" viewBox="0 0 64 64" fill="none" role="img" aria-label="Téléphone">
  <path d="M21.3 9.5c-1.2-2.6-4.2-3.8-6.9-2.8l-3.6 1.3C7.7 9.2 5.9 12.4 6.6 15.7c1.6 7.6 5.4 14.8 11.2 20.6 5.8 5.8 13 9.6 20.6 11.2 3.3.7 6.5-1.1 7.7-4.2l1.3-3.6c1-2.7-.2-5.7-2.8-6.9l-6.5-3c-2.3-1-5-.4-6.6 1.5l-1.6 1.9c-.5.6-1.4.8-2.1.4-2.6-1.3-5-3.1-7-5.1-2-2-3.8-4.4-5.1-7-.4-.7-.2-1.6.4-2.1l1.9-1.6c1.9-1.6 2.5-4.3 1.5-6.6l-3-6.5Z" fill="#FFFFFF" stroke="#FFFFFF" stroke-width="1.5" stroke-linejoin="round"/>
</svg>
